<?xml version="1.0" encoding="utf-8"?>
<!-- Generator: Adobe Illustrator 16.0.0, SVG Export Plug-In . SVG Version: 6.00 Build 0)  -->
<!DOCTYPE svg PUBLIC "-//W3C//DTD SVG 1.1//EN" "http://www.w3.org/Graphics/SVG/1.1/DTD/svg11.dtd">
<svg version="1.1" id="Layer_1" xmlns="http://www.w3.org/2000/svg" xmlns:xlink="http://www.w3.org/1999/xlink" x="0px" y="0px"
	 width="250px" height="250px" viewBox="0 0 250 250" enable-background="new 0 0 250 250" xml:space="preserve">
<path fill="#F9BB16" d="M57.354,150.349l-8.458,31.576l-30.916,0.653C8.741,165.442,3.5,145.835,3.5,125
	c0-20.147,4.9-39.147,13.585-55.877h0.007l27.523,5.046l12.057,27.358c-2.523,7.357-3.899,15.254-3.899,23.472
	C52.774,133.919,54.39,142.464,57.354,150.349z"/>
<path fill="#6287C5" d="M244.377,102.302c1.396,7.35,2.123,14.94,2.123,22.698c0,8.698-0.915,17.184-2.656,25.369
	c-5.915,27.852-21.37,52.171-42.779,69.381l-0.007-0.007l-34.667-1.77l-4.907-30.628c14.207-8.331,25.309-21.37,31.156-36.977
	h-64.969v-48.067h65.917H244.377L244.377,102.302z"/>
<path fill="#2FB44A" d="M201.057,219.743l0.008,0.007C180.243,236.485,153.793,246.5,125,246.5
	c-46.27,0-86.498-25.863-107.02-63.921l39.374-32.23c10.26,27.385,36.677,46.877,67.646,46.877c13.312,0,25.782-3.599,36.482-9.88
	L201.057,219.743z"/>
<path fill="#EF4438" d="M202.554,31.471l-39.36,32.225C152.118,56.773,139.025,52.774,125,52.774
	c-31.67,0-58.581,20.388-68.327,48.754L17.092,69.123h-0.007C37.307,30.136,78.042,3.5,125,3.5
	C154.481,3.5,181.511,14.001,202.554,31.471z"/>
</svg>
